<svg width="18" height="18" viewBox="0 0 18 18" fill="none" xmlns="http://www.w3.org/2000/svg">
<path d="M9.95209 5.61L15.0571 0.50475C15.7298 -0.168 16.8218 -0.168 17.4945 0.50475C18.1672 1.1775 18.1672 2.2695 17.4945 2.94225L12.3895 8.0475C11.7798 8.65725 10.9533 9 10.0908 9H8.99963V7.90875C8.99963 7.04625 9.34236 6.21975 9.95209 5.61ZM6.22174 16.5945C3.22112 14.9272 1.50069 12.1597 1.50069 9C1.49994 4.8645 4.8643 1.5 8.99963 1.5C9.69485 1.5 10.3826 1.59525 11.0455 1.782C11.1138 1.8015 11.1828 1.8105 11.2495 1.8105C11.5765 1.8105 11.8773 1.59525 11.971 1.2645C12.0835 0.8655 11.8518 0.45075 11.4535 0.339C10.6578 0.114 9.83209 0 8.99963 0C4.03708 0 0 4.03725 0 9C0 12.72 2.00167 15.966 5.49277 17.9055C5.60827 17.97 5.73351 18 5.85651 18C6.1205 18 6.37548 17.8605 6.51273 17.6138C6.71447 17.2523 6.58323 16.7955 6.22174 16.5945ZM16.7356 6.0285C16.3373 6.14025 16.1056 6.555 16.2181 6.95325C16.4056 7.617 16.5001 8.3055 16.5001 9C16.5001 11.4818 14.4819 13.5 12.0002 13.5C9.5186 13.5 7.50044 11.4818 7.50044 9C7.50044 8.58525 7.16445 8.25 6.75047 8.25C6.33649 8.25 6.0005 8.58525 6.0005 9C6.0005 12.3082 8.69214 15 12.0002 15C15.3084 15 18 12.3082 18 9C18 8.1675 17.886 7.34175 17.661 6.54675C17.5493 6.14775 17.1345 5.913 16.7356 6.0285Z" fill="url(#paint0_linear_3_25)"/>
<defs>
<linearGradient id="paint0_linear_3_25" x1="9" y1="0" x2="9" y2="18" gradientUnits="userSpaceOnUse">
<stop stop-color="#FE80FF"/>
<stop offset="1" stop-color="#AA3BFF"/>
</linearGradient>
</defs>
</svg>
